<?xml version="1.0" encoding="UTF-8" standalone="no"?>
<!-- Uploaded to: SVG Repo, www.svgrepo.com, Generator: SVG Repo Mixer Tools -->

<svg
   width="800"
   height="190.24634"
   viewBox="0.5 -124.5 328 78.000999"
   version="1.1"
   id="svg6"
   sodipodi:docname="applemusic.svg"
   inkscape:version="1.2.2 (732a01da63, 2022-12-09)"
   xmlns:inkscape="http://www.inkscape.org/namespaces/inkscape"
   xmlns:sodipodi="http://sodipodi.sourceforge.net/DTD/sodipodi-0.dtd"
   xmlns="http://www.w3.org/2000/svg"
   xmlns:svg="http://www.w3.org/2000/svg">
  <defs
     id="defs10" />
  <sodipodi:namedview
     id="namedview8"
     pagecolor="#ffffff"
     bordercolor="#000000"
     borderopacity="0.25"
     inkscape:showpageshadow="2"
     inkscape:pageopacity="0.0"
     inkscape:pagecheckerboard="0"
     inkscape:deskcolor="#d1d1d1"
     showgrid="false"
     inkscape:zoom="0.46756223"
     inkscape:cx="286.59287"
     inkscape:cy="72.717593"
     inkscape:window-width="1920"
     inkscape:window-height="1009"
     inkscape:window-x="-8"
     inkscape:window-y="-8"
     inkscape:window-maximized="1"
     inkscape:current-layer="svg6" />
  <g
     fill="#231f20"
     id="g4"
     transform="translate(0,-125)">
    <path
       d="m 52.244,41.844 c -0.104,-6.346 2.637,-11.286 8.217,-14.822 -3.147,-4.576 -7.788,-7.148 -13.925,-7.723 -2.183,-0.205 -4.974,0.311 -8.369,1.561 -3.652,1.354 -5.708,2.027 -6.164,2.027 -0.964,0 -2.815,-0.569 -5.558,-1.716 -2.737,-1.144 -5.072,-1.716 -7,-1.716 -3.246,0.053 -6.266,0.95 -9.055,2.691 C 7.6,23.889 5.369,26.27 3.696,29.283 1.563,33.029 0.5,37.502 0.5,42.701 c 0,4.68 0.784,9.359 2.356,14.042 1.471,4.473 3.351,8.399 5.631,11.776 2.027,3.069 3.809,5.305 5.326,6.711 2.184,2.183 4.413,3.225 6.699,3.119 1.47,-0.054 3.396,-0.599 5.781,-1.642 2.23,-0.983 4.464,-1.478 6.697,-1.478 2.079,0 4.233,0.492 6.468,1.478 2.484,1.043 4.515,1.562 6.087,1.562 2.334,-0.102 4.514,-1.117 6.546,-3.039 0.707,-0.627 1.482,-1.484 2.318,-2.576 a 79.861,79.861 0 0 0 2.779,-3.9 57.237,57.237 0 0 0 2.093,-3.51 35.298,35.298 0 0 0 1.864,-3.979 c 0.251,-0.572 0.479,-1.156 0.684,-1.754 0.202,-0.598 0.405,-1.207 0.608,-1.832 -1.877,-0.83 -3.577,-2.005 -5.098,-3.514 -3.344,-3.323 -5.044,-7.433 -5.095,-12.321 z m 55.177,13.906 h -0.369 L 91.599,20.436 H 79.464 V 77.413 H 90.04 V 40.512 h 0.491 l 12.914,29.302 h 7.417 l 12.873,-29.302 h 0.493 v 36.901 h 10.698 V 20.436 H 122.874 Z M 42.654,12.982 C 45.344,9.601 46.689,5.961 46.689,2.06 V 1.281 C 46.689,1.019 46.663,0.76 46.613,0.5 44.735,0.604 42.745,1.203 40.638,2.293 38.534,3.387 36.797,4.767 35.425,6.428 32.687,9.707 31.316,13.215 31.316,16.96 v 0.739 c 0,0.236 0.026,0.482 0.076,0.744 4.212,0.415 7.966,-1.406 11.262,-5.461 z m 215.88,7.454 h 11.887 v 56.978 h -11.887 z m 47.789,9.057 c 7.05,0 10.778,5.427 10.778,11.271 H 328.5 v -1.211 c 0,-11.019 -8.404,-20.201 -22.26,-20.201 -14.84,0 -23.693,9.767 -23.693,26.423 v 6.429 c 0,16.651 8.771,26.297 23.651,26.297 14.225,0 22.302,-9.312 22.302,-19.662 v -1.252 h -11.398 c 0,5.888 -3.647,10.771 -10.695,10.771 -7.217,0 -11.809,-5.135 -11.809,-16.115 v -6.424 c 0,-10.942 4.634,-16.326 11.725,-16.326 z M 180.39,56.416 c 0,7.641 -4.468,11.855 -11.026,11.855 -6.6,0 -11.067,-4.174 -11.067,-11.855 V 20.436 H 146.49 v 37.65 c 0,12.15 8.607,20.414 22.872,20.414 14.225,0 22.873,-8.264 22.873,-20.414 V 20.436 H 180.39 Z m 51.174,-12.187 -8.484,-1.918 c -5,-1.047 -7.624,-3.258 -7.624,-6.557 0,-4.381 3.565,-7.137 9.307,-7.137 6.476,0 9.714,3.715 10,7.723 h 11.068 c -0.123,-10.061 -8.525,-17.073 -21.029,-17.073 -11.845,0 -21.192,6.221 -21.192,17.407 0,9.684 6.56,14.189 14.43,15.905 l 8.402,1.96 c 5.657,1.294 8.526,3.174 8.526,7.053 0,4.428 -3.526,7.434 -10.124,7.434 -7.092,0 -10.823,-3.758 -11.149,-7.975 h -11.397 c 0.167,8.057 5.495,17.449 21.974,17.449 13.854,0 22.423,-6.887 22.423,-18.078 -0.004,-10.352 -6.932,-14.401 -15.131,-16.193 z"
       id="path2" />
  </g>
</svg>
