<?xml version="1.0" encoding="UTF-8" standalone="no"?>
<!-- Uploaded to: SVG Repo, www.svgrepo.com, Generator: SVG Repo Mixer Tools -->

<svg
   width="799.99756"
   height="178.912"
   viewBox="0 -198 511.99844 114.50368"
   version="1.1"
   preserveAspectRatio="xMidYMid"
   id="svg12"
   sodipodi:docname="youtube.svg"
   inkscape:version="1.2.2 (732a01da63, 2022-12-09)"
   xmlns:inkscape="http://www.inkscape.org/namespaces/inkscape"
   xmlns:sodipodi="http://sodipodi.sourceforge.net/DTD/sodipodi-0.dtd"
   xmlns="http://www.w3.org/2000/svg"
   xmlns:svg="http://www.w3.org/2000/svg">
  <defs
     id="defs16" />
  <sodipodi:namedview
     id="namedview14"
     pagecolor="#ffffff"
     bordercolor="#000000"
     borderopacity="0.25"
     inkscape:showpageshadow="2"
     inkscape:pageopacity="0.0"
     inkscape:pagecheckerboard="0"
     inkscape:deskcolor="#d1d1d1"
     showgrid="false"
     inkscape:zoom="1.06875"
     inkscape:cx="386.43275"
     inkscape:cy="90.760234"
     inkscape:window-width="1920"
     inkscape:window-height="1009"
     inkscape:window-x="-8"
     inkscape:window-y="-8"
     inkscape:window-maximized="1"
     inkscape:current-layer="svg12" />
  <g
     id="g10"
     transform="translate(0,-198)">
    <g
       id="g6">
      <path
         d="M 159.88914,17.930521 C 157.98073,10.877898 152.47152,5.3686908 145.4189,3.4602761 132.73122,0 81.665931,0 81.665931,0 c 0,0 -51.065286,0.10485685 -63.752965,3.5651329 C 10.860343,5.4735476 5.3511354,10.982755 3.4427207,18.035378 c -3.83776078,22.544223 -5.326728,56.895328 0.1048568,78.537782 1.9084147,7.05262 7.4176225,12.56183 14.4702455,14.47025 12.687679,3.46027 63.752965,3.46027 63.752965,3.46027 0,0 51.065282,0 63.752962,-3.46027 7.05263,-1.90842 12.56183,-7.41763 14.47025,-14.47025 4.04747,-22.57568 5.29527,-56.905813 -0.10486,-78.642639 z"
         fill="#ff0000"
         id="path2" />
      <polygon
         fill="#ffffff"
         points="65.413119,32.715337 65.413119,81.788344 107.77529,57.251841 "
         id="polygon4" />
    </g>
    <path
       d="m 491.23679,33.239622 c 5.55741,0 9.75169,1.048568 12.68768,3.040848 2.93599,1.99228 5.03313,5.137986 6.29141,9.437117 1.25828,4.299131 1.78257,10.171114 1.78257,17.720808 v 12.268251 h -26.94821 v 3.774847 l 0.41942,10.380828 c 0.31457,2.306851 0.83886,3.98456 1.67771,5.033129 0.83886,1.048568 2.202,1.572853 3.98456,1.572853 2.41171,0 4.08942,-0.943712 4.92827,-2.831135 0.94372,-1.887424 1.36314,-5.033129 1.468,-9.33226 l 13.94596,0.838855 c 0.10486,0.629141 0.10486,1.467996 0.10486,2.516564 0,6.605982 -1.78257,11.534254 -5.45256,14.784813 -3.66999,3.25057 -8.70312,4.92827 -15.3091,4.92827 -7.96912,0 -13.52653,-2.51656 -16.67224,-7.444831 -3.1457,-4.928272 -4.82341,-12.687679 -4.82341,-23.068507 V 64.172393 c 0.35651,-17.825665 3.49173,-30.880343 21.91508,-30.932771 z m -193.88032,1.363139 v 52.533282 c 0,3.145706 0.31457,5.452556 1.04857,6.815695 1.48897,2.915021 5.3477,2.170537 7.44484,0.733998 1.21075,-0.81841 2.18668,-1.938927 2.83113,-3.250562 V 34.602761 h 16.0431 v 71.617229 h -12.58282 l -1.36314,-8.807976 h -0.31457 c -3.46028,6.605986 -8.59826,9.961396 -15.41396,9.961396 -10.4904,-0.0267 -13.05641,-7.583924 -13.66745,-15.259677 l -0.04,-0.541919 c -0.0799,-1.174164 -0.11733,-2.347023 -0.13369,-3.492059 V 34.602761 Z m 82.73206,0 v 52.533282 c 0,3.145706 0.31457,5.452556 1.04857,6.815695 1.48896,2.915021 5.3477,2.170537 7.44483,0.733998 1.21075,-0.81841 2.18668,-1.938927 2.83114,-3.250562 V 34.602761 h 16.0431 v 71.617229 h -12.58283 l -1.36314,-8.807976 h -0.31457 c -3.46027,6.605986 -8.59826,9.961396 -15.41395,9.961396 -10.49041,-0.0267 -13.05641,-7.583924 -13.66745,-15.259677 l -0.04,-0.541919 c -0.0799,-1.174164 -0.11734,-2.347023 -0.1337,-3.492059 V 34.602761 Z m -129.2885,-1.363139 c 5.24284,0 9.54197,1.048568 12.68768,3.250562 3.14571,2.201994 5.55741,5.557413 7.02541,10.171115 1.46799,4.613701 2.20199,10.800255 2.20199,18.454805 v 10.380828 c 0,7.654551 -0.734,13.736248 -2.20199,18.349949 -1.468,4.613702 -3.77485,7.969119 -7.02541,10.171119 -3.25056,2.09713 -7.65455,3.25056 -13.10711,3.25056 -5.66227,0.10485 -10.06625,-1.04857 -13.31682,-3.14571 -3.25056,-2.20199 -5.55741,-5.55741 -6.92055,-10.171112 -1.36314,-4.613701 -1.99228,-10.695399 -1.99228,-18.349949 V 65.220961 c 0,-7.65455 0.734,-13.945961 2.30685,-18.559662 1.57285,-4.718559 3.98456,-8.073978 7.33998,-10.171115 3.35542,-2.097137 7.65455,-3.250562 13.00225,-3.250562 z M 432.62181,4.5088446 V 42.257311 h 0.10486 c 1.46799,-2.726278 3.35542,-4.928272 5.97684,-6.605982 2.44827,-1.646618 5.33321,-2.523056 8.28369,-2.516564 3.8797,0 6.81569,1.048568 9.01769,3.040848 2.20199,2.097137 3.77485,5.3477 4.71856,9.856544 0.91422,4.367944 1.43481,10.408784 1.46646,18.02719 l 0.002,0.742187 v 11.32454 c 0,10.590542 -1.36314,18.454805 -3.8797,23.487934 -2.62142,5.033132 -6.60598,7.549692 -12.05854,7.549692 -3.04085,0 -5.76713,-0.734 -8.28369,-2.09714 -2.22745,-1.298 -4.07157,-3.15836 -5.34967,-5.391512 l -0.20774,-0.37561 H 432.098 l -1.67771,6.815692 H 417.103 V 4.5088446 Z M 368.44942,8.1788344 V 21.181084 H 352.51118 V 106.21999 H 336.78265 V 21.181084 h -16.0431 V 8.1788344 Z m -172.90895,0 0.009,0.039481 c 0.15362,0.681983 2.27409,10.1070806 4.6052,21.0874486 l 0.18444,0.869971 c 0.0924,0.43647 0.18507,0.875069 0.27788,1.315354 l 0.18579,0.882689 c 0.031,0.147446 0.062,0.295046 0.093,0.442785 l 0.18602,0.887961 c 0.031,0.148226 0.062,0.296558 0.093,0.444979 l 0.18583,0.891465 v 0 l 0.27039,1.302875 c 1.57383,7.60376 3.07669,15.229999 3.97584,20.698284 h 0.41943 c 0.86201,-4.905413 2.11281,-11.18257 3.44707,-17.591219 l 0.34976,-1.673989 c 0.17562,-0.837671 0.35222,-1.675743 0.5291,-2.511466 l 0.2753,-1.297733 c 2.56685,-12.073252 5.12098,-23.35219 5.59614,-25.4433984 l 0.0307,-0.1350501 c 0.0315,-0.1386129 0.0479,-0.2104368 0.0479,-0.2104368 h 16.0431 L 213.78556,74.343507 V 106.11513 H 197.95218 V 74.448364 h -0.10486 L 179.49737,8.1788344 Z m 54.94499,36.1756136 c -2.20199,0 -3.66999,1.153425 -4.6137,3.565133 -0.94371,2.411707 -1.36314,6.081697 -1.36314,11.219683 v 22.334509 c 0,5.242843 0.41943,9.122546 1.25828,11.429397 0.83886,2.30685 2.41171,3.460276 4.71856,3.460276 2.20199,0 3.77485,-1.153426 4.71856,-3.460276 0.94371,-2.306851 1.36314,-6.186554 1.36314,-11.429397 V 59.139264 c 0,-5.137986 -0.41943,-8.912833 -1.36314,-11.219683 -0.94371,-2.411708 -2.51657,-3.565133 -4.71856,-3.565133 z m 184.96749,2.097137 c -1.27795,1.179639 -2.18725,2.635757 -2.72792,4.454752 L 432.62181,51.275 v 40.684458 c 1.30023,2.201994 3.14571,3.66999 6.39627,3.774847 1.67771,0 3.04085,-0.629141 4.08942,-1.887424 1.04856,-1.258282 1.78256,-3.355419 2.20199,-6.291411 0.40265,-2.818552 0.61203,-6.700101 0.62813,-11.644646 l 0.001,-0.623605 v -9.33226 c 0,-5.66227 -0.20971,-9.961401 -0.52428,-13.002249 -0.41943,-3.040849 -0.94371,-5.242843 -1.88743,-6.501125 -1.82451,-2.621421 -5.76712,-2.589964 -8.07397,0 z m 55.46927,-2.411708 c -1.78257,0.104857 -3.04085,0.629141 -3.77485,1.572853 -0.83885,1.048569 -1.36314,2.621421 -1.67771,4.928272 -0.30828,2.260714 -0.41515,10.160881 -0.4193,10.475983 l -1.2e-4,5.147688 h 11.74396 l -8.3e-4,-4.539828 -1.3e-4,0.0874 c -0.006,1.587121 -0.0388,-0.921313 -0.1114,-4.000334 l -0.01,-0.413608 c -0.066,-2.706408 -0.16233,-5.723717 -0.29714,-6.757306 -0.31458,-2.411708 -0.83886,-4.089417 -1.67771,-5.033129 -0.83886,-0.943711 -2.09714,-1.467996 -3.77485,-1.467996 z"
       fill="#282828"
       id="path8" />
  </g>
</svg>
